# xmcd
#
# Track frame offsets: 
#        150
#        12182
#        25253
#        41367
#        58631
#        70547
#        92205
#        111748
#        124981
#        138272
#        152449
#        167678
#        181246
#        194555
#        208388
#        223767
#        237491
#
# Disc length: 3379 seconds
#
# Revision: 3
# Processed by: cddbd v1.5.2PL0 Copyright (c) Steve Scherf et al.
# Submitted via: ExactAudioCopy v1.0b4
#
DISCID=f80d3111
DTITLE=Various Artist - Pure... Blues CD 1
DYEAR=2010
DGENRE=Blues
TTITLE0=Robert Johnson - Cross Road Blues
TTITLE1=Arthur Big Boy Crudup - That's All Right
TTITLE2=Muddy Waters - The Blues Had A Baby And They Named It Rock And
TTITLE2=Roll
TTITLE3=Fleetwood Mac - Need Your Love So Bad
TTITLE4=Taj Mahal - Lovin' In My Baby's Eyes
TTITLE5=Willie Dixon - I'm Your Hoochie Coochie Man
TTITLE6=Son House - Death Letter Blues
TTITLE7=Sonny Boy Williamson - Whiskey Headed Blues
TTITLE8=Jimmy Yancey - Crying In My Sleep
TTITLE9=Bessie Smith And Her Band - Muddy Water (A Mississippi Moan)
TTITLE10=Blind Willie Johnson - Motherless Children
TTITLE11=Leadbelly - Fort Worth And Dallas Blues
TTITLE12=Robert Lockwood - I'm Gonna Train My Baby
TTITLE13=Tampa Red - Seminole Blues
TTITLE14=Johnny Winter - Johnny B. Goode (Live)
TTITLE15=Otis Spann - Got My Mojo Working
TTITLE16=The Jeff Healey Band - River Of No Return
EXTD=YEAR: 2010 ID3G: 0
EXTT0=
EXTT1=
EXTT2=
EXTT3=
EXTT4=
EXTT5=
EXTT6=
EXTT7=
EXTT8=
EXTT9=
EXTT10=
EXTT11=
EXTT12=
EXTT13=
EXTT14=
EXTT15=
EXTT16=
PLAYORDER=
